<svg width="58" height="58" viewBox="0 0 58 58" fill="none" xmlns="http://www.w3.org/2000/svg">
<path id="Vector" d="M52.3999 0H5.5999C2.7269 0 0.399902 2.327 0.399902 5.2V52C0.399902 54.873 2.7269 57.2 5.5999 57.2H31.5999V33.8H23.7999V26H31.5999V21.8114C31.5999 13.8814 35.4635 10.4 42.0545 10.4C45.2109 10.4 46.8801 10.634 47.6705 10.7406V18.2H43.1751C40.3775 18.2 39.3999 19.6768 39.3999 22.6668V26H47.6003L46.4875 33.8H39.3999V57.2H52.3999C55.2729 57.2 57.5999 54.873 57.5999 52V5.2C57.5999 2.327 55.2703 0 52.3999 0Z" fill="#3F84FD"/>
</svg>
