<svg width="58" height="58" viewBox="0 0 58 58" fill="none" xmlns="http://www.w3.org/2000/svg">
<path id="Vector" d="M52 0H5.2C2.327 0 0 2.327 0 5.2V52C0 54.873 2.327 57.2 5.2 57.2H52C54.873 57.2 57.2 54.873 57.2 52V5.2C57.2 2.327 54.8704 0 52 0ZM48.5914 24.6324C48.2534 24.6636 47.9128 24.6844 47.5696 24.6844C43.6826 24.6844 40.2662 22.6876 38.2772 19.6638C38.2772 27.5912 38.2772 36.6132 38.2772 36.764C38.2772 43.745 32.617 49.4026 25.6386 49.4026C18.6602 49.4 13 43.7398 13 36.7614C13 29.7804 18.6602 24.1228 25.6386 24.1228C25.9038 24.1228 26.1612 24.1462 26.4186 24.1618V30.3914C26.1586 30.3602 25.9064 30.3134 25.6386 30.3134C22.0766 30.3134 19.188 33.202 19.188 36.764C19.188 40.326 22.074 43.2146 25.6386 43.2146C29.2032 43.2146 32.3492 40.4066 32.3492 36.8446C32.3492 36.7016 32.4116 7.8026 32.4116 7.8026H38.363C38.922 13.1248 43.2198 17.3264 48.5914 17.7112V24.6324Z" fill="black"/>
</svg>
